<?xml version="1.0" encoding="iso-8859-1"?>
<!-- Uploaded to: SVG Repo, www.svgrepo.com, Generator: SVG Repo Mixer Tools -->
<svg height="800px" width="800px" version="1.1" id="Layer_1" xmlns="http://www.w3.org/2000/svg" xmlns:xlink="http://www.w3.org/1999/xlink" 
	 viewBox="0 0 512.853 512.853" xml:space="preserve">
<g transform="translate(1 1)">
	<g>
		<path style="fill:#42B05C;" d="M135.533,366.36c-2.56,0-5.12-0.853-6.827-3.413c-2.56-4.267-1.707-9.387,1.707-11.947
			l85.333-59.733c4.267-2.56,9.387-1.707,11.947,1.707c2.56,4.267,1.707,9.387-1.707,11.947l-85.333,59.733
			C138.947,365.507,137.24,366.36,135.533,366.36"/>
		<path style="fill:#42B05C;" d="M383,374.893c-1.707,0-3.413-0.853-5.12-1.707l-93.867-68.267
			c-3.413-2.56-4.267-8.533-1.707-11.947c2.56-3.413,8.533-4.267,11.947-1.707l93.867,68.267c3.413,2.56,4.267,8.533,1.707,11.947
			C388.12,374.04,385.56,374.893,383,374.893"/>
		<path style="fill:#42B05C;" d="M255,263.96c-5.12,0-8.533-3.413-8.533-8.533v-102.4c0-5.12,3.413-8.533,8.533-8.533
			s8.533,3.413,8.533,8.533v102.4C263.533,260.547,260.12,263.96,255,263.96"/>
	</g>
	<path style="fill:#7FABD9;" d="M335.213,73.667c0-31.573-25.6-57.173-57.173-57.173c-19.627,0-38.4,11.093-49.493,26.453
		c-4.267-3.413-11.093-3.413-17.067-3.413c-16.213,0-28.16,11.947-28.16,27.307c0,0.853,0,0.853,0,1.707s0,1.707,0,1.707
		c-13.653,6.827-30.72,17.92-30.72,48.64c0,23.04,25.6,34.133,48.64,34.133h37.547h39.253h50.347
		c22.187,0,29.867-11.947,29.867-34.133C357.4,99.267,353.133,77.08,335.213,73.667"/>
	<path style="fill:#7383BF;" d="M327.533,161.56H201.24c-27.307,0-57.173-13.653-57.173-42.667c0-34.133,19.627-47.787,31.573-53.76
		C176.493,45.507,191.853,31,212.333,31c4.267,0,9.387,0,13.653,1.707c12.8-15.36,31.573-24.747,52.053-24.747
		c33.28,0,61.44,26.453,65.707,59.733c11.947,5.12,23.04,17.92,23.04,51.2C365.933,153.88,345.453,161.56,327.533,161.56z
		 M211.48,48.067c-11.093,0-19.627,7.68-19.627,18.773v1.707v7.68l-5.12,2.56c-12.8,5.973-25.6,14.507-25.6,40.107
		c0,20.48,26.453,25.6,40.107,25.6h126.293c12.8,0,21.333-4.267,21.333-25.6c0-15.36-2.56-34.133-15.36-36.693l-6.827-1.707v-6.827
		c0-27.307-22.187-49.493-48.64-49.493c-16.213,0-33.28,8.533-41.813,22.187l-5.12,6.827l-6.827-5.12
		C220.867,48.067,214.04,48.067,211.48,48.067z"/>
	<path style="fill:#7FABD9;" d="M480.28,415c0-31.573-25.6-57.173-57.173-57.173c-19.627,0-38.4,11.093-49.493,26.453
		c-4.267-3.413-11.093-3.413-17.067-3.413c-16.213,0-28.16,11.947-28.16,27.307c0,0.853,0,0.853,0,1.707c0,0.853,0,1.707,0,1.707
		c-13.653,6.827-30.72,17.92-30.72,48.64c0,23.04,25.6,34.133,48.64,34.133h37.547h39.253h50.347
		c22.187,0,29.867-11.947,29.867-34.133C502.467,440.6,498.2,418.413,480.28,415"/>
	<path style="fill:#7383BF;" d="M472.6,502.893H346.307c-27.307,0-57.173-13.653-57.173-42.667c0-34.133,19.627-47.787,31.573-53.76
		c0.853-19.627,16.213-34.133,36.693-34.133c4.267,0,9.387,0,13.653,1.707c12.8-15.36,31.573-24.747,52.053-24.747
		c33.28,0,61.44,26.453,65.707,59.733c11.947,5.12,23.04,17.92,23.04,51.2C511,495.213,490.52,502.893,472.6,502.893z
		 M356.547,389.4c-11.093,0-19.627,7.68-19.627,18.773v8.533l-5.12,2.56c-12.8,6.827-25.6,15.36-25.6,40.96
		c0,20.48,26.453,25.6,40.107,25.6H472.6c12.8,0,21.333-4.267,21.333-25.6c0-15.36-2.56-34.133-15.36-36.693l-6.827-1.707V415
		c0-27.307-22.187-48.64-48.64-48.64c-16.213,0-33.28,8.533-41.813,22.187l-5.12,6.827l-6.827-5.12
		C365.933,389.4,359.107,389.4,356.547,389.4z"/>
	<path style="fill:#7FABD9;" d="M190.147,415c0-31.573-25.6-57.173-57.173-57.173c-19.627,0-38.4,11.093-49.493,26.453
		c-4.267-3.413-11.093-3.413-17.067-3.413c-16.213,0-28.16,11.947-28.16,27.307c0,0.853,0,0.853,0,1.707c0,0.853,0,1.707,0,1.707
		c-13.653,6.827-30.72,17.92-30.72,48.64c0,23.04,25.6,34.133,48.64,34.133H93.72h39.253h50.347
		c22.187,0,29.867-11.947,29.867-34.133C212.333,440.6,208.067,418.413,190.147,415"/>
	<g>
		<path style="fill:#7383BF;" d="M182.467,502.893H56.173C28.867,502.893-1,489.24-1,460.227c0-34.133,19.627-47.787,31.573-53.76
			c0.853-19.627,16.213-34.133,36.693-34.133c4.267,0,9.387,0,13.653,1.707c12.8-15.36,31.573-24.747,52.053-24.747
			c33.28,0,61.44,26.453,65.707,59.733c11.947,5.12,23.04,17.92,23.04,51.2C220.867,495.213,200.387,502.893,182.467,502.893z
			 M66.413,389.4c-11.093,0-19.627,7.68-19.627,18.773v1.707v7.68l-5.12,2.56c-12.8,5.973-25.6,14.507-25.6,40.107
			c0,20.48,26.453,25.6,40.107,25.6h126.293c12.8,0,21.333-4.267,21.333-25.6c0-15.36-2.56-34.133-15.36-36.693l-6.827-1.707V415
			c0-27.307-22.187-48.64-48.64-48.64c-16.213,0-33.28,8.533-41.813,22.187l-5.12,6.827l-6.827-5.12
			C75.8,389.4,68.973,389.4,66.413,389.4z"/>
		<path style="fill:#7383BF;" d="M306.2,84.76c-3.413,0-6.827-2.56-8.533-5.973c-1.707-4.267,0.853-9.387,5.973-10.24
			c7.68-2.56,11.947-2.56,29.013,0c4.267,0.853,7.68,5.12,6.827,9.387c-0.853,4.267-5.12,7.68-9.387,6.827
			c-15.36-2.56-17.067-1.707-22.187,0C307.907,84.76,307.053,84.76,306.2,84.76z"/>
		<path style="fill:#7383BF;" d="M237.933,76.227c-5.12,0-8.533-3.413-8.533-8.533c0-10.24-5.12-19.627-17.92-19.627
			c-11.093,0-19.627,7.68-19.627,18.773c0,5.12-3.413,8.533-8.533,8.533c-5.12,0-8.533-3.413-8.533-8.533
			c0-20.48,15.36-35.84,36.693-35.84c20.48,0,34.987,15.36,34.987,36.693C246.467,72.813,243.053,76.227,237.933,76.227z"/>
		<path style="fill:#7383BF;" d="M451.267,426.093c-3.413,0-6.827-2.56-8.533-5.973c-1.707-4.267,0.853-9.387,5.973-10.24
			c7.68-2.56,11.947-2.56,29.013,0c4.267,0.853,7.68,5.12,6.827,9.387c-0.853,4.267-5.12,7.68-9.387,6.827
			c-15.36-2.56-17.067-1.707-22.187,0C452.973,426.093,452.12,426.093,451.267,426.093z"/>
		<path style="fill:#7383BF;" d="M383,417.56c-5.12,0-8.533-3.413-8.533-8.533c0-10.24-5.12-19.627-17.92-19.627
			c-11.093,0-19.627,7.68-19.627,18.773c0,5.12-3.413,8.533-8.533,8.533c-5.12,0-8.533-3.413-8.533-8.533
			c0-20.48,15.36-35.84,36.693-35.84c19.627,0,34.987,15.36,34.987,36.693C391.533,414.147,388.12,417.56,383,417.56z"/>
		<path style="fill:#7383BF;" d="M161.133,426.093c-3.413,0-6.827-2.56-8.533-5.973c-1.707-4.267,0.853-9.387,5.973-10.24
			c7.68-2.56,11.947-2.56,29.013,0c4.267,0.853,7.68,5.12,6.827,9.387c-0.853,4.267-5.12,7.68-9.387,6.827
			c-15.36-2.56-17.067-1.707-22.187,0C162.84,426.093,161.987,426.093,161.133,426.093z"/>
		<path style="fill:#7383BF;" d="M92.867,417.56c-5.12,0-8.533-3.413-8.533-8.533c0-10.24-5.12-19.627-17.92-19.627
			c-11.093,0-19.627,7.68-19.627,18.773c0,5.12-3.413,8.533-8.533,8.533s-8.533-3.413-8.533-8.533c0-20.48,15.36-35.84,36.693-35.84
			c20.48,0,34.987,15.36,34.987,36.693C101.4,414.147,97.987,417.56,92.867,417.56z"/>
	</g>
	<path style="fill:#DD342E;" d="M289.133,289.56c0,18.773-15.36,34.133-34.133,34.133s-34.133-15.36-34.133-34.133
		c0-18.773,15.36-34.133,34.133-34.133S289.133,270.787,289.133,289.56"/>
</g>
</svg>